<svg xmlns="http://www.w3.org/2000/svg" xmlns:xlink="http://www.w3.org/1999/xlink" width="365" height="365" viewBox="0 0 365 365"><defs><clipPath id="a"><path d="M253.05,32a5.38,5.38,0,0,0-4.85,0L156,85.16a5.38,5.38,0,0,0-2.42,4.2v106.4a5.37,5.37,0,0,1-2.43,4.2l-92.11,53.2c-1.34.77-1.34,2,0,2.8l92.13,53.2a5.36,5.36,0,0,0,4.84,0L248.17,256a5.37,5.37,0,0,0,2.43-4.2V145.36a5.38,5.38,0,0,1,2.42-4.2L345.18,88c1.33-.77,1.33-2,0-2.8Z" fill="none"/></clipPath><radialGradient id="b" cx="82.15" cy="247.46" r="10.47" gradientUnits="userSpaceOnUse"><stop offset="0" stop-color="#06a9db"/><stop offset="0.04" stop-color="#06a9db" stop-opacity="0.98"/><stop offset="0.27" stop-color="#06a9db" stop-opacity="0.86"/><stop offset="0.5" stop-color="#06a9db" stop-opacity="0.77"/><stop offset="0.74" stop-color="#06a9db" stop-opacity="0.72"/><stop offset="1" stop-color="#06a9db" stop-opacity="0.7"/></radialGradient><radialGradient id="c" cx="133.19" cy="239.86" r="10.47" xlink:href="#b"/><radialGradient id="d" cx="189.69" cy="73.35" r="10.47" xlink:href="#b"/><radialGradient id="e" cx="277.1" cy="53.23" r="15.71" xlink:href="#b"/><radialGradient id="f" cx="133.19" cy="255.06" r="10.47" xlink:href="#b"/><radialGradient id="g" cx="203.43" cy="220.04" r="24.14" gradientTransform="translate(7.14 38.19) rotate(1.91)" xlink:href="#b"/></defs><title>500-illustration</title><polygon points="250.62 30.56 153.6 86.56 153.6 198.56 56.63 254.56 153.61 310.56 250.59 254.56 250.59 142.56 347.6 86.56 250.62 30.56" fill="#fff" opacity="0"/><g clip-path="url(#a)"><polygon points="250.61 30.56 153.62 86.56 250.61 142.56 347.6 86.56 250.61 30.56" fill="#fff"/><polygon points="153.62 198.56 56.63 254.56 153.62 310.56 250.61 254.56 153.62 198.56" fill="#fff"/><polygon points="153.62 86.56 250.61 142.56 250.61 254.56 153.62 198.56 153.62 86.56" fill="#fff" opacity="0.33"/></g><polygon points="69.43 247.17 82.09 239.86 94.86 247.17 82.15 255.06 69.43 247.17" fill="url(#b)"/><polygon points="120.48 239.57 133.13 232.26 145.91 239.57 133.19 247.46 120.48 239.57" fill="url(#c)"/><polygon points="176.98 73.06 189.63 65.75 202.41 73.06 189.69 80.95 176.98 73.06" fill="url(#d)"/><polygon points="258.02 48.85 270.15 41.84 296.17 56.73 283.46 64.62 258.02 48.85" fill="url(#e)"/><polygon points="120.48 254.77 133.13 247.46 145.91 254.77 133.19 262.66 120.48 254.77" fill="url(#f)"/><polygon points="173.8 263.36 203.57 247.47 232.49 265.02 202.54 282.31 173.8 263.36" fill="url(#g)"/><path d="M63.12,226.48l3.51-.13,2.28,2.18,4.77,7a10.59,10.59,0,0,0-2.15-12.87,11,11,0,0,0-7.32-3.11s-6.47-1-9.35-3.21l-29.23-28a6.33,6.33,0,0,0-1.91-5.65,6.05,6.05,0,0,0-8.54-.08,6,6,0,0,0,.47,8.52,6.27,6.27,0,0,0,6.1,1.56l29.15,27.9c2.31,2.83,3.3,9.11,3.3,9.11a11.08,11.08,0,0,0,3.44,7.44,10.59,10.59,0,0,0,12.92,1.6l-7.37-4.89-2.11-2,.07-3.37ZM21,189.79l-2.37,0-1.76-1.69-.13-2.37,1.58-1.65,2.37,0,1.77,1.69.13,2.37Z" fill="#fff"/><path d="M288.32,23.19l-2.08,7.37a5,5,0,0,1,1,4c-.52,1.85-1.76,2-1.76,2a2.61,2.61,0,0,0-1.32,1.38l-1,3.59a1.69,1.69,0,0,0,1.17,2.08l6.55,1.85a1.69,1.69,0,0,0,2.08-1.16l1-3.6a2.6,2.6,0,0,0-.4-1.86s-1.22-.2-.52-2.67a4.4,4.4,0,0,1,3-2.84l4.05,1.14a1.7,1.7,0,0,0,2.1-1.18l1.71-6.07a1.7,1.7,0,0,0-1.17-2.1L295.9,23.2a8,8,0,0,1,.83-3.57,28,28,0,0,1,7.2-9.94C294.36,10.19,289.94,18.38,288.32,23.19Z" fill="#fff"/><path d="M351.31,40.37l-1.91,6.75a1,1,0,0,1-1.11.85s-13.05-4.7-21.48-7.08C319.46,38.82,305.68,36,305.68,36a1,1,0,0,1-.51-1.31l1.91-6.74c.16-.6.66-1,1.11-.85,0,0,12.84,4.64,20.6,6.83,8.29,2.34,22,5.19,22,5.19A1,1,0,0,1,351.31,40.37Z" fill="#fff"/><path d="M58,254.55v42.76l96,58v-45.6a5.13,5.13,0,0,1-2.85-.55L59,256a1.7,1.7,0,0,1-1-1.4Z" fill="#d4f1f9"/><circle cx="248.59" cy="276.9" r="6.52" fill="#fff"/><path d="M278.37,325.26a1.3,1.3,0,0,1-.05-.65l2.59-15.12a4.93,4.93,0,0,0-1-3.87l-3.08-4,6.8-3.88-.49-.87-3.58,2L281.13,286a1.35,1.35,0,0,0-1.09-1.49l-19.82-3.75a1.35,1.35,0,0,0-1.1.28l-8.27,6.78a1,1,0,0,0-.36.84l1.45,25.52a1,1,0,0,0,.15.46l-12.51,7.14c-.14-.21-.27-.43-.43-.64-3.73-5,.73-7.18-1.92-9.07-5.17-3.7-5.09,2.29-11.89-2.31-3-2-6.72-7.87-8.9-8.23-3.49-.56-7.34,2.05-7.75,4.44a54.41,54.41,0,0,0,0,8.37l5.94,3.41,26.08,14.73s1.75-5.16-.64-9.83l24.86-14.18.32.58a1,1,0,0,1-.16,1.27l-9.1,9.43a1.36,1.36,0,0,0-.34,1.48l7.07,18.27a1.75,1.75,0,0,0,1.64,1.12h4.19a1.17,1.17,0,0,0,1.1-1.58l-5.73-15.57a1,1,0,0,1,.24-1.06l6.33-8.24a1,1,0,0,1,1.69.85l-1.82,9.07a1,1,0,0,0,0,.45l4.88,15.13a1.34,1.34,0,0,0,1.31.94l5-.09a1.34,1.34,0,0,0,1.25-1.77ZM256.73,312l-.48-15.82a1,1,0,0,1,1.84-.57l6.37,12Zm18.61-12.32-7.09-9.2-.63-.83a1.35,1.35,0,0,1,1.28-2.15l5.84.89a1.35,1.35,0,0,1,1.14,1.41Z" fill="#fff"/><g opacity="0.5"><path d="M154,309.71v45.6l48.59-30.67V282.31L156,309.16A4.75,4.75,0,0,1,154,309.71Z" fill="#fff"/><path d="M345.08,88l-94.49,54.6-.09,109.2a5.38,5.38,0,0,1-2.42,4.2L232.49,265v41.07h0l18.34-11.35-.34-6.11a1,1,0,0,1,.36-.84l8.27-6.78a1.35,1.35,0,0,1,1.1-.28l10.14,1.92,9.84-6.09v-115l65.87-41v-34A1.69,1.69,0,0,1,345.08,88ZM248.59,283.43a6.53,6.53,0,1,1,6.52-6.53A6.53,6.53,0,0,1,248.59,283.43Z" fill="#fff"/></g></svg>